<?xml version="1.0"?>
<svg xmlns="http://www.w3.org/2000/svg" xmlns:xlink="http://www.w3.org/1999/xlink" xmlns:svgjs="http://svgjs.com/svgjs" version="1.1" width="512" height="512" x="0" y="0" viewBox="0 0 512 512" style="enable-background:new 0 0 512 512" xml:space="preserve" class=""><g>
<g xmlns="http://www.w3.org/2000/svg">
	<g>
		<path d="M407.531,206.527c-13.212,0-25.855,2.471-37.501,6.966c-9.124-20.276-17.007-41.719-20.944-61.668    c-6.323-32.038-34.634-55.291-67.318-55.291c-8.284,0-15,6.716-15,15s6.716,15,15,15c3.569,0,7.044,0.498,10.355,1.423    c10.063,2.812,18.602,9.618,23.582,18.758c-0.403,0.512-0.787,1.043-1.128,1.618l-4.66,7.845l-23.576,39.69H160.377l-7.16-18.021    h2.972c8.284,0,15-6.716,15-15s-6.716-15-15-15H104.47c-8.284,0-15,6.716-15,15s6.716,15,15,15h16.466l13.09,32.944    c-9.376-2.77-19.294-4.265-29.556-4.265C46.865,206.527,0,253.392,0,310.996s46.865,104.469,104.469,104.469    c52.511,0,96.091-38.946,103.388-89.469h27.547c5.292,0,10.193-2.789,12.896-7.339l78.827-132.706    c4.624,14.31,10.412,28.648,16.651,42.346c-24.747,19.122-40.716,49.079-40.716,82.7c0,57.604,46.865,104.469,104.469,104.469    S512,368.601,512,310.997S465.135,206.527,407.531,206.527z M104.469,325.996h72.951c-6.96,33.897-37.025,59.469-72.951,59.469    C63.407,385.464,30,352.058,30,310.996c0-41.062,33.407-74.469,74.469-74.469c35.926,0,65.991,25.572,72.951,59.469h-72.951    c-8.284,0-15,6.716-15,15S96.185,325.996,104.469,325.996z M226.867,295.996h-19.01c-3.481-24.099-15.216-45.561-32.241-61.421    c-0.156-0.602-0.337-1.202-0.573-1.795l-2.746-6.911h96.225L226.867,295.996z M407.531,385.464    c-41.063,0-74.469-33.407-74.469-74.469c0-21.753,9.378-41.355,24.301-54.983c18.448,35.256,36.467,61.538,37.823,63.504    c2.911,4.217,7.594,6.48,12.358,6.48c2.938,0,5.907-0.862,8.508-2.657c6.818-4.706,8.53-14.048,3.824-20.866    c-0.323-0.468-18.475-26.939-36.652-61.853c7.624-2.641,15.797-4.095,24.307-4.095c41.062,0,74.469,33.407,74.469,74.469    C482,352.056,448.593,385.464,407.531,385.464z" fill="#2b206f" data-original="#000000" style="" class=""/>
	</g>
</g>
<g xmlns="http://www.w3.org/2000/svg">
</g>
<g xmlns="http://www.w3.org/2000/svg">
</g>
<g xmlns="http://www.w3.org/2000/svg">
</g>
<g xmlns="http://www.w3.org/2000/svg">
</g>
<g xmlns="http://www.w3.org/2000/svg">
</g>
<g xmlns="http://www.w3.org/2000/svg">
</g>
<g xmlns="http://www.w3.org/2000/svg">
</g>
<g xmlns="http://www.w3.org/2000/svg">
</g>
<g xmlns="http://www.w3.org/2000/svg">
</g>
<g xmlns="http://www.w3.org/2000/svg">
</g>
<g xmlns="http://www.w3.org/2000/svg">
</g>
<g xmlns="http://www.w3.org/2000/svg">
</g>
<g xmlns="http://www.w3.org/2000/svg">
</g>
<g xmlns="http://www.w3.org/2000/svg">
</g>
<g xmlns="http://www.w3.org/2000/svg">
</g>
</g></svg>
